<svg width="30" height="30" viewBox="0 0 30 30" fill="none" xmlns="http://www.w3.org/2000/svg">
<path d="M15 30C23.2843 30 30 23.2843 30 15C30 6.71573 23.2843 0 15 0C6.71573 0 0 6.71573 0 15C0 23.2843 6.71573 30 15 30Z" fill="#27C2FF"/>
<path fill-rule="evenodd" clip-rule="evenodd" d="M15 2.80957C14.5979 2.80957 14.2699 3.13232 14.2699 3.52915C14.2699 3.92597 14.5979 4.24872 15 4.24872C20.9418 4.24872 25.7566 9.06354 25.7566 15.0053C25.7566 15.4022 26.0794 15.7249 26.4762 15.7249C26.8731 15.7249 27.1958 15.4022 27.1958 15.0053C27.1958 8.27518 21.7355 2.81486 15.0053 2.81486L15 2.80957ZM11.3545 4.56619C11.7566 4.56619 12.0847 4.24344 12.0847 3.84661C12.0847 3.44979 11.7566 3.12704 11.3545 3.12704C10.9524 3.12704 10.6244 3.44979 10.6244 3.84661C10.6244 4.24344 10.9524 4.56619 11.3545 4.56619ZM15.7302 26.471C15.7302 26.8678 15.4021 27.1905 15 27.1905L14.9947 27.1852C8.26455 27.1852 2.80423 21.7249 2.80423 14.9948C2.80423 14.5979 3.12698 14.2752 3.52381 14.2752C3.92063 14.2752 4.24338 14.5979 4.24338 14.9948C4.24338 20.9366 9.0582 25.7514 15 25.7514C15.4021 25.7514 15.7302 26.0741 15.7302 26.471ZM18.1111 24.8995C17.709 24.8995 17.3809 25.2223 17.3809 25.6191C17.3809 26.0159 17.709 26.3387 18.1111 26.3387C18.5132 26.3387 18.8413 26.0159 18.8413 25.6191C18.8413 25.2223 18.5132 24.8995 18.1111 24.8995ZM19.2064 9.46566H10.8995V9.45508C10.6773 9.45508 10.3281 9.45508 9.97886 9.6191C9.65611 9.77254 9.38627 10.0159 9.20637 10.3281C9.03177 10.6403 8.94711 11.0001 8.97886 11.3546C9.00973 11.7302 9.1857 12.0257 9.30242 12.2217C9.30573 12.2273 9.30899 12.2328 9.31219 12.2382V12.2434L14.4656 21.2434C14.5767 21.4392 14.7937 21.5662 15.0212 21.5662C15.254 21.5715 15.4656 21.4498 15.582 21.2487L20.8307 12.2329V12.2223C21 11.926 21.0741 11.5979 21.0741 11.2646C21.0741 10.9313 20.9894 10.6244 20.8307 10.3387L20.799 10.2911L20.7944 10.2845C20.6572 10.0892 20.4668 9.81828 20.1006 9.65085C19.7937 9.50799 19.5027 9.46566 19.2064 9.46566ZM10.8995 10.7514H14.3757H14.381V18.508L10.4286 11.6032C10.4233 11.5979 10.418 11.5874 10.418 11.5874C10.2857 11.3704 10.2593 11.3069 10.2593 11.254C10.254 11.1588 10.2752 11.0583 10.3228 10.9789C10.3704 10.8995 10.4392 10.8307 10.5238 10.7937C10.582 10.7673 10.672 10.7514 10.8995 10.7514ZM15.6614 18.5397V10.7514H19.2064C19.3598 10.7514 19.4603 10.7725 19.5556 10.8149C19.5767 10.8255 19.5926 10.836 19.6138 10.8572C19.6173 10.8616 19.6211 10.8663 19.6253 10.8714C19.646 10.8969 19.6746 10.9322 19.7143 10.9895C19.7619 11.0794 19.7831 11.1641 19.7831 11.2646C19.7831 11.3863 19.7566 11.5027 19.709 11.5874L15.6614 18.5397Z" fill="white"/>
</svg>
